<?xml version="1.0" encoding="UTF-8" standalone="no" ?>
<!DOCTYPE svg PUBLIC "-//W3C//DTD SVG 1.1//EN" "http://www.w3.org/Graphics/SVG/1.1/DTD/svg11.dtd">
<svg xmlns="http://www.w3.org/2000/svg" xmlns:xlink="http://www.w3.org/1999/xlink" version="1.1" width="750" height="410" viewBox="27.5 9.09 750 410" xml:space="preserve">
<desc>Created with Fabric.js 5.2.4</desc>
<defs>
</defs>
<g transform="matrix(Infinity NaN NaN Infinity 0 0)" id="08dab2b1-e57e-4e26-bbb6-9233e955f3a2"  >
</g>
<g transform="matrix(1 0 0 1 375 240)" id="cbd4a61e-0e13-46c9-b12c-14fc70561590"  >
<rect style="stroke: none; stroke-width: 1; stroke-dasharray: none; stroke-linecap: butt; stroke-dashoffset: 0; stroke-linejoin: miter; stroke-miterlimit: 4; fill: rgb(255,255,255); fill-rule: nonzero; opacity: 1; visibility: hidden;" vector-effect="non-scaling-stroke"  x="-375" y="-240" rx="0" ry="0" width="750" height="480" />
</g>
<g transform="matrix(0.71 0 0 0.71 393.85 284.15)"  >
<g style="opacity: 1;" vector-effect="non-scaling-stroke"   >
		<g transform="matrix(1 0 0 1 -490 -290)"  >
<rect style="stroke: none; stroke-width: 1; stroke-dasharray: none; stroke-linecap: butt; stroke-dashoffset: 0; stroke-linejoin: miter; stroke-miterlimit: 4; fill: rgb(255,255,255); fill-opacity: 0; fill-rule: nonzero; opacity: 1;" vector-effect="non-scaling-stroke"  x="-50" y="-50" rx="0" ry="0" width="100" height="100" />
</g>
		<g transform="matrix(1 0 0 1 0 0)"  >
<rect style="stroke: none; stroke-width: 1; stroke-dasharray: none; stroke-linecap: butt; stroke-dashoffset: 0; stroke-linejoin: miter; stroke-miterlimit: 4; fill: rgb(255,255,255); fill-rule: nonzero; opacity: 1; visibility: hidden;" vector-effect="non-scaling-stroke"  x="-540" y="-340" rx="0" ry="0" width="1080" height="680" />
</g>
		<g transform="matrix(0.03 0 0 -0.03 200.05 -287.78)"  >
<path style="stroke: none; stroke-width: 1; stroke-dasharray: none; stroke-linecap: butt; stroke-dashoffset: 0; stroke-linejoin: miter; stroke-miterlimit: 4; fill: rgb(107,16,16); fill-rule: nonzero; opacity: 1;" vector-effect="non-scaling-stroke"  transform=" translate(-21410.67, -17010.8)" d="M 21246 18549 C 20889 18511 20570 18359 20316 18104 C 20093 17882 19949 17613 19888 17305 C 19856 17146 19856 16850 19888 16703 C 19918 16564 19960 16447 20032 16303 L 20092 16181 L 20050 16103 C 20026 16060 19993 16000 19977 15970 C 19960 15940 19950 15918 19955 15922 C 19959 15926 19995 15987 20035 16057 L 20107 16185 L 20049 16295 C 19888 16604 19838 16956 19905 17308 C 19952 17552 20069 17791 20241 17997 C 20688 18529 21460 18689 22080 18380 C 22372 18234 22630 17980 22767 17705 C 22957 17323 22989 16918 22858 16525 C 22678 15983 22216 15590 21645 15494 C 21513 15472 21286 15472 21160 15494 C 20920 15536 20686 15632 20515 15760 C 20476 15788 20462 15794 20453 15785 C 20447 15779 20415 15767 20381 15760 C 20347 15753 20322 15745 20324 15743 C 20327 15740 20362 15746 20402 15755 L 20475 15772 L 20560 15715 C 20723 15606 20923 15524 21125 15483 C 21262 15456 21568 15458 21710 15489 C 22622 15684 23153 16572 22890 17460 C 22787 17805 22561 18107 22255 18306 C 21955 18501 21601 18586 21246 18549 z" stroke-linecap="round" />
</g>
		<g transform="matrix(0.03 0 0 -0.03 198.15 -292.23)"  >
<path style="stroke: none; stroke-width: 1; stroke-dasharray: none; stroke-linecap: butt; stroke-dashoffset: 0; stroke-linejoin: miter; stroke-miterlimit: 4; fill: rgb(107,16,16); fill-rule: nonzero; opacity: 1;" vector-effect="non-scaling-stroke"  transform=" translate(-21352.67, -17152.53)" d="M 21318 17645 C 21316 17642 21290 17638 21262 17635 C 21207 17629 21124 17591 21127 17572 C 21129 17566 21124 17563 21116 17566 C 21083 17578 20978 17405 20994 17364 C 20997 17357 20995 17348 20990 17345 C 20978 17338 20977 17283 20988 17276 C 20993 17273 21038 17274 21088 17277 C 21173 17282 21180 17285 21180 17304 C 21180 17345 21223 17404 21270 17428 C 21329 17458 21411 17455 21459 17420 C 21498 17393 21530 17329 21529 17280 C 21529 17225 21498 17158 21463 17134 C 21445 17122 21433 17111 21435 17108 C 21440 17103 21421 17100 21332 17094 L 21260 17088 L 21262 16872 L 21265 16655 L 21359 16655 L 21454 16655 L 21457 16710 C 21458 16740 21456 16797 21452 16836 L 21444 16907 L 21504 16936 C 21585 16975 21649 17041 21691 17125 C 21722 17188 21725 17203 21725 17280 C 21724 17333 21718 17384 21707 17415 C 21685 17479 21617 17558 21553 17593 C 21484 17630 21336 17663 21318 17645 z M 21480 16945 C 21480 16937 21476 16930 21470 16930 C 21465 16930 21463 16937 21466 16945 C 21470 16953 21474 16960 21476 16960 C 21478 16960 21480 16953 21480 16945 z" stroke-linecap="round" />
</g>
		<g transform="matrix(0.03 0 0 -0.03 198.37 -271.03)"  >
<path style="stroke: none; stroke-width: 1; stroke-dasharray: none; stroke-linecap: butt; stroke-dashoffset: 0; stroke-linejoin: miter; stroke-miterlimit: 4; fill: rgb(107,16,16); fill-rule: nonzero; opacity: 1;" vector-effect="non-scaling-stroke"  transform=" translate(-21360.41, -16459.82)" d="M 21269 16548 C 21262 16528 21260 16464 21265 16422 L 21272 16369 L 21363 16372 L 21455 16375 L 21458 16454 C 21460 16511 21457 16536 21448 16541 C 21437 16549 21272 16554 21269 16548 z" stroke-linecap="round" />
</g>
		<g transform="matrix(0.03 0 0 -0.03 129.95 -81.68)"  >
<path style="stroke: none; stroke-width: 1; stroke-dasharray: none; stroke-linecap: butt; stroke-dashoffset: 0; stroke-linejoin: miter; stroke-miterlimit: 4; fill: rgb(107,16,16); fill-rule: nonzero; opacity: 1;" vector-effect="non-scaling-stroke"  transform=" translate(-19101.46, -10304.67)" d="M 18035 16269 C 17949 16257 17730 16199 17730 16188 C 17730 16183 17726 16182 17720 16185 C 17704 16195 17599 16134 17511 16064 C 17467 16028 17430 15995 17430 15990 C 17430 15977 17263 15838 17193 15793 C 17112 15741 17000 15706 16815 15675 C 16623 15642 16562 15627 16484 15590 C 16340 15521 16269 15435 16243 15298 C 16234 15252 16224 15211 16219 15206 C 16215 15202 16190 15205 16163 15214 C 16135 15223 16104 15232 16092 15235 C 16081 15237 16063 15243 16052 15249 C 16042 15254 16022 15261 16009 15264 C 15996 15267 15962 15276 15933 15284 C 15904 15292 15868 15301 15853 15304 C 15838 15307 15800 15316 15770 15324 C 15719 15338 15473 15379 15440 15378 C 15432 15378 15387 15384 15340 15391 C 15222 15409 14660 15409 14515 15392 C 14426 15381 14375 15381 14246 15391 C 14023 15408 13572 15397 13374 15371 C 12780 15291 12284 15098 11865 14784 C 11120 14226 10664 13363 10506 12215 C 10451 11814 10437 11489 10445 10770 C 10448 10448 10455 9789 10460 9305 C 10470 8437 10475 8270 10505 7975 C 10605 6998 10899 6205 11373 5640 C 11908 5001 12589 4640 13455 4534 C 13645 4511 14071 4504 14271 4521 C 14454 4536 14500 4537 14850 4525 C 15419 4507 15950 4596 16385 4784 C 16548 4855 16691 4926 16701 4942 C 16704 4947 16711 4952 16716 4951 C 16737 4951 16920 5072 16914 5082 C 16910 5089 16912 5090 16918 5086 C 16940 5073 17209 5292 17350 5437 C 17452 5542 17559 5663 17574 5689 C 17579 5698 17586 5707 17590 5710 C 17601 5717 17700 5850 17695 5850 C 17693 5850 17702 5862 17715 5876 C 17729 5891 17740 5907 17740 5913 C 17740 5919 17750 5937 17763 5954 C 17791 5991 17890 6155 17890 6164 C 17890 6168 17901 6187 17913 6208 C 17926 6228 17935 6251 17932 6259 C 17929 6267 17932 6270 17939 6266 C 17945 6262 17950 6265 17950 6273 C 17950 6281 17964 6312 17980 6343 C 17997 6374 18010 6409 18010 6420 C 18010 6431 18014 6440 18018 6440 C 18030 6440 18052 6489 18045 6500 C 18042 6505 18044 6510 18048 6512 C 18066 6519 18198 6888 18214 6972 C 18219 6999 18199 7017 18178 7003 C 18171 6999 18170 7002 18175 7010 C 18181 7020 18179 7022 18168 7017 C 18159 7014 18148 7016 18143 7021 C 18138 7026 18099 7035 18055 7041 C 17974 7052 17878 7047 17805 7028 C 17783 7023 17758 7017 17750 7015 C 17674 7000 17550 6947 17550 6930 C 17550 6924 17555 6922 17562 6926 C 17568 6930 17570 6929 17567 6924 C 17564 6918 17570 6880 17581 6839 C 17612 6723 17595 6649 17525 6596 C 17499 6576 17480 6569 17459 6572 C 17425 6577 17423 6567 17445 6514 C 17453 6495 17459 6477 17459 6475 C 17462 6440 17474 6391 17480 6395 C 17484 6397 17487 6387 17488 6372 C 17488 6357 17491 6299 17494 6242 C 17501 6118 17485 6074 17424 6045 C 17368 6019 17283 6017 17241 6041 L 17208 6061 L 17173 6020 C 17107 5943 17026 5927 16945 5975 C 16895 6004 16870 6032 16840 6096 L 16818 6140 L 16774 6095 C 16750 6070 16709 6040 16683 6028 C 16634 6007 16612 5987 16525 5885 C 16468 5819 16340 5689 16289 5647 C 16202 5576 16140 5533 16088 5505 C 16057 5489 16033 5473 16035 5470 C 16037 5467 16030 5463 16019 5463 C 16009 5462 15987 5453 15972 5442 C 15957 5432 15932 5420 15917 5416 C 15900 5412 15892 5405 15896 5398 C 15901 5391 15899 5390 15890 5395 C 15883 5399 15875 5399 15871 5394 C 15868 5389 15843 5379 15815 5372 C 15788 5365 15763 5355 15762 5349 C 15760 5344 15755 5342 15751 5344 C 15747 5347 15715 5340 15679 5329 C 15557 5291 15401 5270 15228 5270 C 15033 5270 14923 5284 14745 5335 C 14696 5349 14648 5362 14640 5365 C 14632 5367 14601 5378 14571 5389 C 14541 5400 14513 5407 14507 5403 C 14501 5400 14500 5402 14504 5408 C 14508 5415 14505 5420 14497 5420 C 14489 5420 14448 5436 14406 5455 C 14335 5487 14325 5489 14329 5467 C 14330 5462 14326 5461 14320 5465 C 14314 5468 14312 5476 14316 5481 C 14319 5486 14286 5506 14243 5526 C 14200 5545 14139 5574 14106 5591 C 14074 5607 14043 5617 14037 5613 C 14032 5610 14029 5611 14033 5616 C 14038 5625 13891 5697 13688 5786 C 13582 5832 13360 5913 13360 5904 C 13360 5902 13351 5904 13340 5910 C 13329 5916 13301 5925 13278 5930 C 13254 5935 13204 5946 13165 5955 C 13056 5980 12998 5985 12815 5985 C 12686 5985 12625 5980 12563 5966 C 12513 5955 12483 5943 12487 5937 C 12491 5931 12488 5930 12481 5934 C 12474 5939 12457 5937 12442 5931 C 12427 5925 12402 5916 12385 5910 C 12361 5901 12358 5897 12370 5888 C 12382 5880 12381 5879 12367 5884 C 12356 5887 12328 5881 12303 5870 C 12277 5859 12255 5852 12252 5855 C 12249 5857 12255 5862 12264 5866 C 12273 5869 12277 5876 12274 5881 C 12271 5886 12276 5887 12284 5884 C 12293 5881 12300 5883 12300 5889 C 12300 5895 12307 5900 12316 5900 C 12324 5900 12329 5904 12326 5908 C 12324 5912 12329 5916 12338 5917 C 12361 5918 12474 5963 12478 5972 C 12480 5976 12488 5976 12497 5973 C 12508 5969 12511 5971 12506 5978 C 12501 5986 12504 5988 12514 5984 C 12523 5981 12552 5983 12579 5990 C 12667 6011 12876 6029 12896 6018 C 12901 6015 12928 6012 12956 6012 C 13016 6011 13266 5973 13295 5960 C 13306 5955 13354 5940 13402 5925 C 13449 5911 13528 5883 13577 5864 C 13625 5845 13672 5827 13680 5825 C 13688 5823 13739 5801 13793 5776 C 13846 5751 13890 5733 13890 5736 C 13890 5739 13896 5736 13903 5730 C 13928 5708 14033 5661 14043 5667 C 14049 5671 14050 5668 14045 5660 C 14039 5650 14041 5648 14053 5653 C 14061 5656 14074 5652 14080 5644 C 14087 5636 14101 5630 14111 5630 C 14122 5630 14130 5625 14130 5619 C 14130 5613 14137 5611 14147 5614 C 14157 5618 14161 5618 14157 5614 C 14148 5604 14229 5568 14243 5577 C 14248 5580 14250 5578 14247 5573 C 14239 5560 14294 5535 14310 5545 C 14316 5548 14319 5547 14318 5541 C 14314 5527 14430 5478 14448 5485 C 14455 5488 14459 5486 14456 5481 C 14449 5471 14583 5419 14602 5424 C 14609 5425 14611 5424 14605 5422 C 14600 5419 14619 5409 14649 5399 C 14678 5389 14706 5383 14711 5386 C 14716 5389 14720 5387 14720 5382 C 14720 5373 14871 5333 14936 5325 C 14958 5322 15009 5315 15050 5309 C 15147 5294 15421 5304 15520 5325 C 15653 5353 15811 5403 15797 5413 C 15789 5419 15791 5420 15804 5416 C 15831 5407 16130 5557 16115 5572 C 16112 5575 16116 5577 16123 5577 C 16164 5577 16440 5828 16543 5959 L 16578 6003 L 16542 6028 C 16491 6061 16476 6082 16423 6190 C 16398 6242 16376 6286 16375 6287 C 16374 6289 16101 6179 16035 6150 C 16012 6140 15880 6094 15770 6057 C 15614 6005 15289 5946 15050 5925 L 14985 5920 L 14600 6118 C 14147 6352 13660 6599 13610 6621 C 13591 6629 13521 6665 13455 6699 C 13389 6734 13229 6816 13100 6882 C 12971 6949 12798 7037 12715 7080 C 12633 7123 12466 7208 12345 7270 C 11857 7520 11852 7523 11750 7596 C 11580 7718 11418 7942 11341 8164 C 11256 8406 11259 8694 11349 8925 C 11399 9054 11473 9155 11651 9338 L 11813 9505 L 11769 9510 C 11745 9513 11685 9511 11635 9507 C 11586 9502 11535 9498 11523 9497 C 11510 9496 11500 9492 11500 9488 C 11500 9484 11494 9483 11486 9486 C 11479 9489 11444 9484 11410 9475 C 11319 9451 11327 9463 11422 9493 C 11533 9528 11614 9540 11741 9540 L 11846 9540 L 11947 9643 C 12003 9699 12102 9801 12169 9870 C 12235 9939 12386 10094 12504 10215 L 12719 10435 L 12782 10370 C 12897 10250 13073 10067 13321 9810 C 13671 9447 13745 9369 13745 9360 C 13745 9356 13694 9300 13633 9236 C 13571 9172 13520 9117 13520 9112 C 13520 9108 13482 8936 13435 8730 C 13389 8524 13354 8353 13358 8349 C 13362 8346 13426 8299 13500 8243 C 13818 8007 14250 7686 14588 7435 C 14788 7286 15096 7058 15271 6927 C 15447 6797 15595 6690 15600 6690 C 15605 6690 15676 6722 15757 6761 C 15838 6800 15946 6852 15996 6875 C 16046 6899 16127 6943 16176 6973 C 16297 7048 16456 7127 16505 7136 C 16526 7140 16568 7154 16596 7167 C 16686 7208 16783 7223 16867 7210 C 16929 7200 16945 7201 16987 7216 C 17048 7237 17221 7246 17277 7231 C 17339 7214 17459 7096 17525 6985 C 17534 6971 17539 6970 17568 6983 C 17586 6990 17597 7000 17593 7005 C 17588 7009 17593 7010 17602 7007 C 17612 7004 17639 7007 17662 7016 C 17831 7075 18027 7082 18173 7032 L 18228 7014 L 18249 7099 C 18260 7145 18267 7187 18264 7191 C 18262 7195 18264 7200 18268 7202 C 18284 7208 18364 7658 18376 7810 C 18379 7846 18383 7889 18385 7905 C 18412 8114 18430 8447 18430 8736 L 18430 8916 L 18656 9008 L 18882 9099 L 18918 9064 C 19020 8964 19160 8890 19288 8868 C 19438 8843 19597 8892 19684 8992 C 19713 9025 19759 9104 19809 9206 C 19879 9348 19953 9460 19967 9446 C 19971 9442 19642 8784 19084 7683 L 18890 7301 L 18950 6868 C 19028 6309 19039 6238 19043 6234 C 19045 6232 19091 6234 19146 6240 C 19200 6246 19448 6271 19695 6295 C 19943 6320 20188 6344 20240 6350 C 20292 6355 20520 6378 20745 6400 C 20971 6421 21199 6444 21253 6450 C 21307 6456 21377 6463 21408 6466 C 21461 6470 22036 6526 22280 6550 C 22338 6556 22421 6565 22465 6571 C 22509 6576 22556 6580 22570 6580 C 22584 6580 22685 6589 22795 6600 C 22905 6611 23067 6627 23155 6636 C 23243 6644 23371 6657 23438 6664 C 23526 6673 23563 6673 23565 6666 C 23568 6657 23613 6200 23772 4548 C 23787 4397 23797 4330 23805 4330 C 23832 4330 24956 4441 24970 4445 C 24987 4449 25014 4452 25275 4475 C 25374 4484 25466 4493 25480 4497 C 25494 4500 25534 4504 25570 4506 C 25629 4509 25787 4524 26040 4550 C 26092 4556 26232 4569 26350 4580 C 26607 4604 26642 4609 26656 4623 C 26660 4627 26658 4630 26651 4630 C 26644 4630 26642 4635 26645 4640 C 26652 4651 26632 4915 26623 4940 C 26619 4948 26618 4961 26619 4969 C 26622 4985 26601 5187 26594 5212 C 26590 5227 26584 5227 26522 5209 C 26485 5199 26430 5185 26400 5180 C 26370 5174 26334 5168 26320 5165 C 26177 5136 25827 5142 25605 5176 C 25583 5179 25556 5183 25545 5184 C 25534 5184 25523 5187 25520 5190 C 25517 5193 25481 5204 25440 5215 C 25399 5225 25331 5244 25290 5258 C 25249 5271 25204 5284 25190 5287 C 25177 5289 25163 5294 25160 5298 C 25157 5302 25121 5321 25080 5340 C 24964 5394 24851 5459 24788 5507 C 24756 5531 24730 5553 24730 5555 C 24730 5561 24819 5514 24836 5499 C 24843 5493 24855 5492 24861 5496 C 24869 5501 24870 5499 24865 5490 C 24859 5480 24861 5478 24874 5483 C 24883 5487 24889 5486 24886 5482 C 24879 5471 25124 5348 25155 5346 C 25168 5346 25176 5343 25174 5341 C 25167 5334 25231 5310 25241 5316 C 25246 5319 25250 5316 25250 5310 C 25250 5303 25257 5300 25265 5304 C 25273 5307 25280 5306 25280 5301 C 25280 5288 25507 5227 25522 5236 C 25526 5239 25530 5237 25530 5232 C 25530 5224 25692 5196 25800 5185 C 25914 5175 26081 5170 26077 5177 C 26074 5182 26122 5186 26184 5186 C 26245 5187 26315 5193 26340 5200 C 26365 5206 26392 5211 26400 5211 C 26416 5211 26494 5227 26552 5241 L 26589 5251 L 26585 5323 C 26582 5363 26573 5456 26565 5530 C 26557 5604 26550 5676 26550 5689 C 26550 5702 26543 5777 26534 5854 C 26526 5932 26518 6002 26518 6010 C 26518 6018 26514 6063 26509 6110 C 26505 6157 26485 6361 26465 6564 C 26445 6767 26427 6937 26424 6942 C 26421 6946 26425 6952 26432 6955 C 26439 6957 26589 6973 26765 6989 C 26941 7006 27200 7032 27340 7046 C 27480 7060 27632 7074 27678 7077 C 27723 7080 27760 7086 27760 7089 C 27760 7092 27755 7133 27750 7180 C 27744 7227 27738 7292 27735 7325 C 27729 7389 27697 7728 27651 8193 C 27635 8352 27620 8483 27617 8486 C 27613 8491 27551 8485 27255 8456 C 27050 8435 26729 8404 26530 8385 C 26439 8377 26349 8368 26329 8365 C 26294 8360 26292 8362 26286 8393 C 26283 8410 26278 8459 26275 8500 C 26271 8541 26260 8658 26249 8760 C 26238 8862 26229 8952 26229 8960 C 26228 8980 26182 9472 26175 9530 C 26170 9575 26170 9576 26243 9648 L 26316 9720 L 26350 9708 C 26372 9700 26434 9695 26510 9695 C 26657 9695 26732 9714 26872 9787 C 27033 9872 27155 10010 27254 10221 C 27347 10420 27384 10577 27383 10776 C 27382 10947 27381 10950 27287 10950 C 27014 10950 26723 10825 26550 10633 C 26358 10420 26266 10131 26300 9845 L 26312 9747 L 26242 9677 L 26172 9607 L 26166 9641 C 26163 9660 26142 9864 26120 10095 C 26098 10326 26075 10556 26069 10605 C 26063 10655 26057 10727 26054 10765 C 26050 10833 26039 10940 26024 11065 C 26020 11098 26017 11128 26018 11131 C 26018 11134 26010 11222 25999 11326 C 25989 11430 25975 11569 25969 11634 C 25963 11700 25945 11877 25929 12029 C 25913 12181 25900 12316 25900 12329 C 25900 12342 25893 12417 25885 12494 C 25877 12572 25863 12709 25855 12800 C 25846 12891 25838 12976 25835 12990 C 25833 13004 25831 13019 25831 13023 C 25830 13028 25825 13028 25819 13024 C 25812 13020 25812 13025 25820 13040 C 25840 13078 25825 13072 25790 13027 C 25671 12879 25516 12755 25346 12675 C 25145 12580 25028 12550 24821 12543 C 24667 12537 24557 12548 24432 12581 C 24392 12592 24354 12598 24349 12595 C 24344 12591 24340 12593 24340 12598 C 24340 12603 24328 12610 24313 12613 C 24297 12616 24247 12632 24201 12649 C 24155 12665 24112 12677 24107 12673 C 24101 12670 24100 12672 24104 12678 C 24108 12685 24106 12690 24099 12690 C 24093 12690 24042 12708 23987 12730 C 23931 12753 23880 12768 23873 12765 C 23865 12762 23862 12765 23865 12771 C 23869 12777 23866 12780 23859 12779 C 23851 12778 23825 12786 23800 12798 C 23741 12825 23525 12887 23461 12896 C 23428 12900 23410 12907 23410 12916 C 23410 12924 23420 12930 23433 12930 C 23468 12929 23621 12894 23727 12861 C 23781 12844 23828 12831 23833 12831 C 23837 12830 23854 12823 23870 12815 C 23900 12800 24056 12740 24075 12736 C 24081 12735 24090 12731 24096 12728 C 24122 12711 24303 12651 24311 12656 C 24316 12659 24320 12657 24320 12652 C 24320 12644 24515 12592 24550 12591 C 24558 12591 24585 12586 24610 12581 C 24723 12556 24938 12573 25119 12621 C 25245 12655 25477 12765 25528 12817 C 25535 12824 25544 12830 25548 12830 C 25552 12831 25571 12845 25590 12862 C 25609 12879 25619 12889 25611 12885 C 25602 12879 25599 12881 25604 12889 C 25608 12895 25615 12898 25620 12895 C 25630 12889 25652 12915 25643 12924 C 25639 12928 25644 12928 25654 12924 C 25668 12919 25671 12920 25666 12929 C 25662 12935 25662 12939 25667 12938 C 25677 12935 25730 12980 25730 12992 C 25730 12997 25725 12998 25718 12994 C 25711 12990 25710 12991 25714 12999 C 25718 13005 25726 13008 25731 13004 C 25743 12997 25771 13031 25763 13044 C 25759 13049 25762 13050 25768 13046 C 25775 13042 25780 13045 25780 13054 C 25780 13063 25790 13076 25803 13085 L 25826 13100 L 25813 13227 C 25805 13298 25799 13362 25798 13370 C 25797 13396 25761 13781 25750 13880 C 25737 14003 25660 14781 25655 14840 C 25653 14865 25646 14941 25639 15010 C 25627 15134 25626 15136 25601 15138 C 25576 15140 25140 15099 24975 15079 C 24931 15074 24886 15070 24875 15070 C 24857 15070 24386 15024 24315 15016 C 24299 15014 24249 15009 24205 15005 C 24161 15002 24062 14992 23985 14983 C 23908 14975 23838 14968 23830 14968 C 23793 14969 22709 14863 22705 14858 C 22703 14856 22562 14578 22392 14240 L 22081 13625 L 21998 13618 C 21865 13607 21668 13561 21620 13531 C 21586 13508 21623 13512 21703 13539 C 21839 13585 22060 13617 22060 13590 C 22060 13585 22010 13483 21950 13365 L 21840 13149 L 22021 12857 C 22120 12696 22227 12525 22258 12475 C 22733 11711 22719 11736 22759 11608 C 22819 11417 22816 11187 22751 10975 C 22669 10712 22469 10455 22233 10312 C 22180 10280 22101 10258 20520 9830 C 20054 9704 19766 9625 19726 9613 C 19704 9607 19702 9593 19755 9890 C 19774 9997 19839 10365 19899 10708 C 19960 11050 20012 11335 20015 11340 C 20018 11346 20028 11350 20036 11350 C 20044 11350 20167 11375 20308 11405 C 20449 11435 20744 11497 20963 11544 C 21182 11590 21364 11631 21367 11633 C 21369 11636 21285 11849 21179 12107 C 21074 12364 20968 12622 20945 12680 C 20922 12738 20870 12862 20831 12957 C 20792 13052 20756 13140 20751 13154 L 20741 13178 L 20583 13124 C 20411 13066 20364 13060 20268 13085 C 20122 13123 19995 13215 19909 13347 C 19836 13460 19777 13634 19763 13782 C 19760 13819 19753 13850 19747 13850 C 19734 13850 19746 13732 19771 13630 C 19823 13411 19923 13251 20070 13151 C 20125 13113 20242 13061 20277 13059 C 20311 13057 20235 13042 20183 13041 C 20102 13039 19981 13067 19904 13105 C 19775 13168 19676 13305 19633 13475 C 19616 13547 19608 13807 19622 13860 C 19629 13884 19627 13886 19532 13907 C 19402 13937 19291 13955 19283 13946 C 19279 13943 19268 13848 19258 13737 C 19222 13333 19166 12938 19109 12686 C 19037 12370 18935 12153 18778 11985 C 18614 11810 18455 11718 18235 11672 L 18155 11655 L 18134 11500 C 18122 11415 18112 11344 18111 11342 C 18111 11341 18092 11353 18069 11370 C 18007 11415 17925 11442 17849 11442 C 17777 11443 17753 11436 17606 11378 L 17508 11339 L 17371 11416 C 17108 11564 16996 11661 16934 11795 C 16858 11960 16860 12127 16945 12510 C 16989 12710 17003 12823 16997 12918 C 16994 12960 16987 13074 16981 13170 C 16975 13266 16966 13379 16961 13420 C 16937 13595 16953 13735 17006 13825 C 17043 13888 17133 13967 17234 14025 C 17454 14150 17497 14179 17550 14231 C 17639 14318 17656 14363 17704 14619 C 17732 14767 17784 14850 17893 14921 C 17968 14969 18068 15002 18255 15040 C 18422 15074 18482 15091 18554 15127 C 18615 15158 18694 15231 18727 15287 L 18752 15330 L 18822 15293 C 18945 15227 19078 15076 19149 14922 L 19173 14870 L 19234 14923 C 19316 14994 19354 15021 19448 15078 C 19526 15125 19528 15126 19515 15150 C 19506 15167 19505 15177 19512 15181 C 19518 15185 19515 15190 19503 15194 C 19493 15197 19476 15214 19466 15232 C 19455 15249 19418 15299 19383 15343 C 19348 15386 19320 15424 19323 15426 C 19332 15435 19466 15288 19517 15213 C 19548 15167 19576 15132 19578 15135 C 19587 15144 19489 15279 19420 15353 C 19383 15393 19325 15445 19292 15470 C 19241 15508 19228 15524 19210 15574 C 19155 15722 19051 15873 18919 15997 C 18692 16210 18354 16314 18035 16269 z M 17645 16140 C 17642 16135 17633 16130 17627 16130 C 17620 16130 17621 16134 17630 16140 C 17649 16152 17653 16152 17645 16140 z M 19315 15432 C 19309 15425 19280 15450 19280 15463 C 19280 15468 19289 15465 19300 15455 C 19311 15445 19318 15435 19315 15432 z M 15840 15235 C 15840 15227 15836 15221 15832 15223 C 15828 15224 15803 15214 15777 15201 C 15733 15179 15731 15176 15746 15159 C 15758 15146 15758 15140 15749 15134 C 15742 15130 15739 15131 15743 15137 C 15747 15143 15743 15153 15736 15160 C 15724 15169 15711 15166 15673 15144 C 15647 15129 15569 15089 15500 15054 C 15431 15019 15370 14986 15363 14980 C 15356 14975 15346 14970 15341 14970 C 15335 14970 15300 14955 15263 14936 C 15226 14917 15172 14892 15143 14879 C 15115 14866 15093 14853 15096 14849 C 15098 14845 15092 14844 15082 14847 C 15071 14849 15056 14845 15048 14836 C 15039 14828 15030 14824 15026 14827 C 15023 14831 15020 14828 15020 14821 C 15020 14814 15015 14812 15010 14815 C 15004 14819 14994 14817 14987 14812 C 14980 14807 14930 14786 14875 14766 C 14820 14745 14760 14720 14742 14709 C 14724 14699 14712 14694 14715 14700 C 14718 14706 14714 14707 14706 14704 C 14697 14701 14692 14694 14695 14690 C 14698 14685 14690 14684 14678 14688 C 14667 14691 14659 14689 14662 14684 C 14666 14679 14654 14674 14637 14674 C 14620 14673 14604 14668 14602 14662 C 14600 14656 14593 14653 14586 14656 C 14580 14658 14556 14653 14535 14644 C 14514 14635 14489 14627 14481 14625 C 14472 14623 14402 14605 14325 14585 C 14248 14565 14167 14547 14145 14544 C 14123 14541 14083 14534 14055 14529 C 14028 14523 13976 14517 13940 14514 C 13904 14511 13868 14507 13860 14503 C 13852 14500 13753 14498 13640 14497 C 13358 14497 13190 14519 12975 14586 C 12909 14606 12847 14623 12838 14624 C 12829 14624 12823 14627 12825 14631 C 12831 14640 12749 14671 12737 14663 C 12731 14660 12730 14662 12734 14669 C 12738 14675 12732 14684 12718 14690 C 12698 14699 12699 14700 12725 14694 C 12742 14690 12765 14686 12777 14686 C 12788 14685 12797 14683 12795 14679 C 12791 14673 12974 14607 12999 14605 C 13008 14605 13020 14601 13025 14598 C 13040 14589 13225 14553 13315 14541 C 13419 14528 13676 14516 13690 14525 C 13696 14528 13744 14533 13798 14535 C 13851 14537 13904 14541 13915 14543 C 13926 14546 13968 14551 14008 14555 C 14047 14559 14080 14566 14080 14572 C 14080 14577 14085 14578 14090 14575 C 14108 14564 14449 14646 14525 14679 C 14547 14689 14571 14695 14579 14692 C 14587 14689 14590 14692 14586 14699 C 14582 14706 14584 14708 14594 14704 C 14602 14701 14630 14707 14657 14718 C 14683 14729 14749 14754 14803 14774 C 14934 14823 14980 14843 14980 14853 C 14980 14857 14984 14859 14990 14855 C 14995 14852 15026 14863 15059 14880 C 15092 14896 15127 14910 15137 14910 C 15153 14910 15153 14912 15140 14921 C 15127 14930 15128 14931 15143 14926 C 15161 14920 15558 15107 15594 15138 C 15605 15148 15611 15150 15607 15144 C 15601 15133 15724 15193 15748 15212 C 15754 15218 15760 15220 15760 15216 C 15760 15213 15777 15219 15797 15230 C 15842 15254 15840 15254 15840 15235 z M 25025 15010 C 25028 15004 25024 15003 25016 15006 C 24998 15013 24995 15020 25009 15020 C 25015 15020 25022 15016 25025 15010 z M 25026 14978 C 25030 14972 25029 14970 25023 14973 C 25018 14976 25001 14968 24985 14954 C 24970 14941 24953 14930 24948 14930 C 24943 14930 24942 14925 24946 14918 C 24950 14911 24949 14910 24941 14914 C 24935 14918 24916 14910 24899 14896 C 24882 14882 24864 14870 24859 14870 C 24853 14870 24852 14865 24856 14858 C 24860 14851 24859 14850 24851 14854 C 24845 14858 24834 14857 24827 14852 C 24776 14812 24544 14705 24422 14665 C 24382 14651 24343 14637 24337 14633 C 24330 14629 24316 14624 24306 14623 C 24295 14621 24261 14613 24231 14605 C 24150 14585 23943 14550 23900 14550 C 23880 14550 23861 14548 23858 14545 C 23848 14535 23610 14536 23610 14546 C 23610 14551 23665 14558 23732 14562 C 23857 14570 24033 14593 24105 14612 C 24127 14617 24156 14624 24170 14627 C 24213 14635 24381 14687 24484 14724 C 24612 14771 24902 14919 24893 14934 C 24890 14940 24890 14942 24895 14938 C 24904 14930 24960 14960 24960 14973 C 24960 14977 24964 14979 24969 14975 C 24974 14972 24981 14974 24985 14980 C 24993 14994 25017 14993 25026 14978 z M 16113 14835 C 16110 14826 16105 14821 16103 14824 C 16100 14827 16101 14833 16105 14839 C 16114 14855 16120 14852 16113 14835 z M 16043 14785 C 16040 14776 16035 14771 16033 14774 C 16030 14777 16031 14783 16035 14789 C 16044 14805 16050 14802 16043 14785 z M 15910 14741 C 15910 14736 15903 14729 15894 14726 C 15880 14721 15879 14722 15890 14735 C 15904 14752 15910 14754 15910 14741 z M 14482 13894 C 14650 13838 14820 13735 14960 13603 L 15050 13518 L 15007 13484 C 14714 13244 14645 12809 14851 12503 C 14962 12339 15110 12237 15327 12175 C 15394 12155 15442 12133 15502 12094 C 15579 12044 15585 12037 15591 12000 C 15594 11978 15595 11958 15593 11956 C 15591 11954 15517 11975 15427 12002 C 15165 12080 15135 12085 14955 12084 C 14815 12083 14782 12080 14695 12057 C 14579 12026 14452 11967 14325 11885 C 14126 11757 13730 11443 13346 11108 L 13235 11012 L 13229 11058 C 13225 11084 13224 11278 13225 11490 C 13229 11951 13245 12153 13304 12488 C 13319 12572 13380 12813 13399 12862 C 13404 12876 13406 12891 13403 12894 C 13399 12897 13402 12900 13409 12900 C 13417 12900 13420 12908 13417 12920 C 13414 12931 13416 12940 13420 12940 C 13425 12940 13432 12950 13435 12963 C 13450 13012 13533 13192 13571 13260 C 13601 13311 13664 13406 13695 13445 C 13713 13467 13725 13492 13723 13500 C 13720 13511 13721 13512 13727 13503 C 13734 13493 13744 13498 13768 13523 C 13785 13540 13800 13560 13801 13565 C 13803 13578 13898 13661 13985 13725 C 14092 13805 14326 13918 14385 13920 C 14396 13920 14439 13908 14482 13894 z M 15500 13530 C 15500 13525 15495 13520 15489 13520 C 15484 13520 15482 13525 15485 13530 C 15488 13536 15493 13540 15496 13540 C 15498 13540 15500 13536 15500 13530 z M 15186 13337 L 15253 13239 L 15231 13217 C 15191 13173 15133 13046 15120 12973 C 15114 12932 15110 12839 15112 12753 L 15115 12605 L 15167 12487 C 15223 12361 15286 12264 15346 12210 L 15383 12178 L 15349 12185 C 15291 12197 15168 12248 15101 12287 C 14882 12415 14738 12684 14753 12935 C 14766 13142 14863 13339 15010 13456 L 15064 13499 L 15092 13467 C 15108 13449 15150 13391 15186 13337 z M 23210 12938 C 23210 12925 23169 12909 23127 12905 C 23068 12899 22981 12882 22967 12873 C 22960 12869 22946 12864 22935 12863 C 22924 12861 22913 12855 22912 12850 C 22910 12844 22904 12842 22900 12845 C 22895 12848 22873 12839 22851 12825 C 22828 12811 22806 12800 22801 12800 C 22796 12800 22787 12793 22780 12785 C 22765 12767 22734 12765 22724 12782 C 22720 12789 22721 12790 22728 12786 C 22734 12782 22747 12787 22757 12797 C 22767 12807 22792 12824 22813 12833 C 22833 12843 22850 12855 22850 12860 C 22850 12865 22858 12869 22868 12869 C 22877 12868 22914 12879 22950 12893 C 22986 12907 23037 12921 23063 12925 C 23089 12929 23112 12935 23114 12939 C 23120 12947 23210 12947 23210 12938 z M 11590 12667 C 11609 12659 11654 12640 11690 12623 C 11753 12594 11887 12541 11913 12536 C 11919 12534 11932 12531 11940 12528 C 12018 12499 12179 12463 12307 12445 C 12627 12399 12935 12423 13279 12521 C 13286 12523 13295 12519 13297 12513 C 13300 12506 13296 12500 13288 12500 C 13280 12500 13241 12489 13200 12475 C 13114 12446 13126 12448 12955 12419 C 12848 12400 12788 12396 12610 12396 C 12340 12395 12168 12421 11935 12496 C 11823 12532 11807 12538 11709 12584 C 11676 12599 11644 12608 11634 12604 C 11621 12600 11619 12601 11627 12607 C 11636 12614 11627 12624 11595 12644 C 11535 12682 11534 12688 11590 12667 z M 18001 11382 C 18036 11364 18075 11341 18087 11331 L 18110 11312 L 18080 11105 C 18064 10991 18049 10895 18046 10893 C 18043 10890 18016 10901 17984 10916 C 17928 10944 17909 10962 17709 11173 C 17663 11222 17604 11276 17577 11293 L 17530 11323 L 17602 11353 C 17750 11412 17782 11420 17861 11417 C 17923 11415 17947 11409 18001 11382 z M 16424 11287 C 16479 11236 16547 11193 16617 11168 C 16665 11151 16709 11146 16880 11140 C 17068 11133 17091 11131 17154 11106 C 17255 11068 17312 11032 17496 10894 C 17740 10711 17840 10657 17962 10643 L 18011 10637 L 18005 10586 C 17990 10469 17949 10297 17919 10224 C 17869 10105 17800 10039 17691 10006 C 17559 9967 17362 9978 17233 10032 C 17045 10110 16809 10336 16628 10612 C 16468 10855 16333 11173 16314 11355 L 16308 11415 L 16346 11370 C 16367 11345 16402 11308 16424 11287 z M 21815 9980 C 21818 9975 21816 9970 21811 9970 C 21805 9970 21800 9975 21800 9980 C 21800 9986 21802 9990 21804 9990 C 21807 9990 21812 9986 21815 9980 z M 23258 9820 C 23267 9720 23386 8498 23419 8165 C 23423 8121 23427 8084 23426 8083 C 23425 8082 23331 8072 23215 8061 C 23100 8049 22960 8036 22905 8030 C 22499 7989 22385 7978 22240 7965 C 22149 7957 22059 7947 22040 7944 C 22021 7941 21981 7937 21950 7935 C 21920 7934 21853 7929 21801 7925 C 21714 7917 21707 7918 21713 7934 C 21717 7944 21720 7958 21720 7966 C 21720 7975 21724 7979 21729 7976 C 21738 7970 21783 8054 21783 8077 C 21783 8084 21787 8087 21791 8085 C 21801 8078 21811 8110 21803 8122 C 21800 8129 21802 8130 21808 8126 C 21815 8122 21820 8123 21820 8128 C 21820 8133 21840 8174 21865 8220 C 21889 8265 21907 8307 21903 8313 C 21900 8318 21901 8321 21906 8317 C 21911 8314 21931 8341 21950 8378 C 21969 8414 22009 8489 22039 8544 C 22068 8600 22093 8651 22093 8658 C 22093 8664 22096 8670 22100 8670 C 22113 8670 22152 8751 22146 8766 C 22143 8775 22145 8778 22150 8775 C 22156 8772 22182 8815 22210 8871 C 22237 8927 22264 8978 22269 8984 C 22274 8990 22305 9047 22338 9110 C 22371 9173 22412 9251 22429 9283 C 22447 9314 22458 9345 22454 9352 C 22450 9359 22451 9360 22458 9356 C 22471 9348 22544 9485 22535 9500 C 22532 9505 22536 9512 22544 9517 C 22565 9529 22632 9658 22624 9671 C 22620 9679 22621 9680 22628 9676 C 22636 9672 22649 9689 22665 9722 L 22690 9775 L 22803 9797 C 22949 9826 23034 9854 23145 9910 C 23195 9935 23238 9954 23241 9951 C 23244 9947 23252 9889 23258 9820 z M 21840 9595 C 21840 9590 21835 9592 21830 9600 C 21825 9608 21820 9620 21820 9625 C 21820 9631 21825 9628 21830 9620 C 21835 9612 21840 9601 21840 9595 z M 24449 9523 C 24471 9499 24524 9453 24577 9410 C 24647 9353 24826 9256 24842 9266 C 24848 9270 24850 9269 24847 9263 C 24840 9252 24935 9216 24949 9224 C 24954 9228 24962 9225 24965 9220 C 24978 9200 25074 9175 25205 9159 C 25268 9151 25497 9158 25540 9169 C 25565 9176 25601 9184 25620 9187 C 25639 9190 25685 9203 25721 9216 C 25801 9245 25818 9247 25799 9224 C 25761 9178 25566 9130 25384 9123 C 25084 9111 24822 9191 24587 9368 C 24533 9409 24484 9450 24478 9460 C 24471 9470 24460 9475 24452 9472 C 24442 9469 24439 9471 24444 9478 C 24448 9485 24446 9490 24440 9490 C 24434 9490 24431 9494 24434 9499 C 24437 9504 24433 9513 24425 9520 C 24410 9532 24405 9550 24416 9550 C 24419 9550 24434 9538 24449 9523 z M 26130 9410 C 26077 9364 25922 9261 25894 9254 C 25881 9251 25873 9244 25876 9239 C 25879 9234 25887 9233 25893 9237 C 25900 9241 25899 9237 25891 9227 C 25876 9209 25865 9204 25875 9220 C 25878 9226 25871 9230 25858 9230 C 25837 9231 25839 9235 25879 9270 C 25903 9292 25929 9310 25937 9310 C 25945 9310 25949 9314 25946 9319 C 25943 9324 25948 9334 25958 9341 C 25973 9354 25974 9353 25961 9338 C 25937 9306 25964 9319 26050 9379 C 26140 9442 26188 9461 26130 9410 z M 26155 9391 C 26158 9386 26157 9379 26152 9376 C 26147 9373 26143 9377 26143 9385 C 26143 9402 26146 9404 26155 9391 z M 21640 9100 C 21640 9095 21635 9090 21629 9090 C 21624 9090 21622 9095 21625 9100 C 21628 9106 21633 9110 21636 9110 C 21638 9110 21640 9106 21640 9100 z M 22117 8715 C 22117 8707 22113 8703 22108 8706 C 22103 8709 22102 8716 22105 8721 C 22114 8734 22117 8732 22117 8715 z M 26495 7830 C 26637 7807 26632 7808 26740 7774 C 26787 7760 26833 7747 26842 7747 C 26851 7746 26856 7742 26854 7738 C 26851 7734 26855 7730 26862 7730 C 26869 7730 26888 7723 26904 7715 C 26920 7706 26940 7702 26947 7705 C 26955 7707 26959 7706 26956 7701 C 26953 7696 26983 7677 27023 7658 C 27062 7639 27126 7605 27164 7582 C 27201 7559 27234 7540 27236 7540 C 27238 7540 27249 7532 27259 7523 C 27300 7485 27311 7479 27322 7486 C 27329 7490 27330 7489 27326 7482 C 27322 7475 27332 7463 27349 7452 C 27366 7442 27377 7430 27372 7426 C 27368 7422 27374 7420 27385 7422 C 27396 7423 27405 7420 27405 7415 C 27405 7409 27419 7391 27435 7374 C 27452 7358 27486 7321 27513 7292 C 27539 7264 27563 7240 27565 7240 C 27568 7240 27570 7238 27570 7235 C 27570 7232 27579 7220 27590 7208 C 27601 7196 27610 7182 27610 7178 C 27610 7173 27615 7172 27622 7176 C 27628 7180 27630 7179 27627 7173 C 27623 7167 27630 7151 27641 7136 C 27652 7122 27660 7105 27658 7100 C 27656 7094 27631 7120 27603 7157 C 27516 7269 27481 7303 27465 7290 C 27453 7280 27452 7282 27455 7300 C 27458 7316 27451 7329 27432 7344 C 27418 7355 27402 7364 27398 7363 C 27393 7361 27391 7366 27393 7373 C 27394 7379 27388 7384 27380 7382 C 27372 7380 27368 7381 27372 7385 C 27384 7397 27301 7460 27282 7454 C 27269 7449 27268 7450 27278 7458 C 27288 7465 27274 7479 27221 7514 C 27179 7542 27145 7558 27138 7554 C 27131 7550 27128 7551 27132 7555 C 27149 7573 26888 7698 26738 7744 C 26504 7815 26247 7842 26030 7819 C 25925 7808 25757 7773 25710 7753 C 25691 7744 25668 7736 25660 7735 C 25652 7734 25634 7730 25620 7725 L 25595 7718 L 25619 7743 C 25647 7773 25735 7807 25793 7809 C 25804 7810 25808 7815 25804 7822 C 25800 7829 25801 7830 25808 7826 C 25814 7822 25868 7826 25927 7834 C 25986 7843 26055 7852 26080 7854 C 26167 7862 26376 7850 26495 7830 z M 21330 7581 C 21621 7524 21894 7413 22411 7142 C 22504 7093 22530 7084 22546 7092 C 22561 7101 22563 7100 22553 7090 C 22544 7080 22558 7069 22618 7040 C 22800 6950 22898 6910 22917 6917 C 22929 6922 22931 6920 22925 6910 C 22919 6900 22922 6898 22938 6902 C 22950 6905 22958 6903 22957 6898 C 22954 6884 23099 6836 23265 6796 C 23495 6740 23715 6727 23891 6760 C 23983 6777 24120 6822 24113 6833 C 24109 6839 24113 6841 24123 6837 C 24143 6829 24203 6853 24193 6865 C 24188 6869 24190 6870 24197 6866 C 24211 6858 24343 6923 24333 6934 C 24329 6938 24333 6938 24341 6935 C 24350 6932 24363 6936 24370 6945 C 24377 6953 24387 6960 24393 6960 C 24398 6960 24418 6971 24436 6985 C 24454 6999 24471 7010 24475 7010 C 24486 7010 24585 7082 24593 7096 C 24597 7104 24606 7110 24611 7110 C 24622 7110 24790 7237 24802 7255 C 24806 7260 24813 7265 24817 7265 C 24835 7265 24902 7329 24896 7339 C 24891 7346 24895 7347 24905 7344 C 24915 7340 24958 7366 25028 7419 C 25087 7463 25151 7511 25170 7525 C 25189 7539 25206 7547 25208 7541 C 25213 7525 25180 7470 25165 7470 C 25157 7470 25150 7466 25150 7460 C 25150 7455 25145 7450 25139 7450 C 25127 7450 24971 7335 24953 7313 C 24947 7305 24939 7299 24936 7300 C 24929 7301 24869 7256 24839 7228 C 24828 7218 24816 7210 24812 7210 C 24808 7210 24785 7191 24762 7168 C 24739 7146 24720 7130 24720 7133 C 24720 7136 24681 7110 24633 7075 C 24586 7039 24543 7010 24538 7010 C 24533 7010 24532 7006 24535 7000 C 24538 6994 24534 6993 24526 6996 C 24517 7000 24508 6995 24504 6986 C 24501 6977 24493 6970 24487 6970 C 24481 6970 24469 6964 24461 6956 C 24452 6949 24415 6927 24378 6908 C 24341 6889 24312 6870 24315 6867 C 24318 6863 24317 6862 24314 6864 C 24311 6866 24263 6848 24207 6823 C 24070 6762 23906 6722 23766 6714 C 23556 6703 23539 6703 23534 6712 C 23531 6716 23514 6720 23497 6720 C 23479 6720 23425 6727 23375 6736 C 23326 6745 23278 6753 23270 6754 C 23261 6755 23250 6758 23245 6762 C 23239 6765 23222 6770 23205 6774 C 23151 6786 22957 6851 22870 6886 C 22767 6928 22685 6966 22528 7045 C 22233 7194 21904 7358 21890 7363 C 21882 7366 21837 7385 21790 7405 C 21478 7538 21240 7587 20962 7577 C 20833 7572 20784 7566 20690 7541 C 20581 7513 20493 7482 20515 7480 C 20521 7479 20506 7473 20484 7466 C 20461 7459 20427 7441 20408 7426 C 20389 7412 20370 7403 20366 7408 C 20362 7412 20353 7408 20346 7400 C 20340 7392 20326 7380 20315 7373 C 20304 7367 20296 7357 20297 7352 C 20298 7346 20292 7336 20282 7328 C 20267 7316 20266 7317 20279 7333 C 20286 7342 20288 7350 20283 7350 C 20277 7350 20236 7311 20191 7264 C 20134 7204 20111 7173 20115 7162 C 20118 7153 20118 7149 20114 7153 C 20110 7157 20101 7155 20093 7149 C 20083 7140 20080 7141 20080 7153 C 20080 7161 20087 7173 20095 7180 C 20103 7187 20110 7199 20110 7206 C 20110 7214 20115 7220 20121 7220 C 20126 7220 20128 7225 20124 7232 C 20120 7239 20121 7240 20128 7236 C 20144 7226 20143 7242 20128 7260 C 20117 7272 20118 7272 20131 7262 C 20144 7252 20150 7253 20160 7265 C 20167 7273 20169 7280 20165 7280 C 20161 7280 20163 7287 20170 7295 C 20177 7303 20186 7308 20190 7305 C 20194 7303 20206 7310 20216 7321 C 20233 7340 20233 7341 20214 7334 C 20204 7330 20198 7330 20202 7334 C 20205 7338 20214 7342 20222 7344 C 20229 7345 20250 7356 20268 7370 C 20292 7387 20297 7396 20288 7403 C 20279 7409 20281 7410 20294 7406 C 20312 7400 20365 7426 20395 7457 C 20403 7465 20410 7469 20410 7466 C 20410 7462 20438 7474 20472 7491 C 20568 7540 20761 7591 20890 7604 C 20991 7613 21227 7601 21330 7581 z M 24577 7095 C 24577 7087 24573 7083 24568 7086 C 24563 7089 24562 7096 24565 7101 C 24574 7114 24577 7112 24577 7095 z M 18177 6918 C 18174 6910 18171 6913 18171 6924 C 18170 6935 18173 6941 18176 6937 C 18179 6934 18180 6925 18177 6918 z M 14009 6256 C 14044 6229 14111 6180 14158 6148 C 14261 6078 14257 6072 14151 6138 C 14110 6164 14071 6184 14067 6182 C 14062 6181 14062 6185 14066 6191 C 14071 6200 14068 6201 14056 6197 C 14047 6193 14041 6194 14044 6199 C 14048 6206 13995 6253 13988 6249 C 13986 6248 13955 6277 13918 6313 C 13881 6349 13848 6375 13844 6372 C 13840 6368 13840 6370 13843 6377 C 13847 6383 13840 6397 13827 6407 C 13814 6417 13800 6432 13795 6440 C 13790 6448 13822 6421 13866 6380 C 13909 6339 13974 6283 14009 6256 z" stroke-linecap="round" />
</g>
		<g transform="matrix(0.03 0 0 -0.03 154.45 -253.14)"  >
<path style="stroke: none; stroke-width: 1; stroke-dasharray: none; stroke-linecap: butt; stroke-dashoffset: 0; stroke-linejoin: miter; stroke-miterlimit: 4; fill: rgb(107,16,16); fill-rule: nonzero; opacity: 1;" vector-effect="non-scaling-stroke"  transform=" translate(-19928.66, -15876.32)" d="M 19925 15879 C 19921 15873 19920 15867 19923 15864 C 19925 15861 19930 15866 19933 15875 C 19940 15892 19934 15895 19925 15879 z" stroke-linecap="round" />
</g>
		<g transform="matrix(0.03 0 0 -0.03 165.71 -248.81)"  >
<path style="stroke: none; stroke-width: 1; stroke-dasharray: none; stroke-linecap: butt; stroke-dashoffset: 0; stroke-linejoin: miter; stroke-miterlimit: 4; fill: rgb(107,16,16); fill-rule: nonzero; opacity: 1;" vector-effect="non-scaling-stroke"  transform=" translate(-20295.86, -15735.19)" d="M 20288 15733 C 20295 15730 20304 15731 20307 15734 C 20311 15737 20305 15740 20294 15739 C 20283 15739 20280 15736 20288 15733 z" stroke-linecap="round" />
</g>
		<g transform="matrix(0.03 0 0 -0.03 164.48 -248.51)"  >
<path style="stroke: none; stroke-width: 1; stroke-dasharray: none; stroke-linecap: butt; stroke-dashoffset: 0; stroke-linejoin: miter; stroke-miterlimit: 4; fill: rgb(107,16,16); fill-rule: nonzero; opacity: 1;" vector-effect="non-scaling-stroke"  transform=" translate(-20255.86, -15725.19)" d="M 20248 15723 C 20255 15720 20264 15721 20267 15724 C 20271 15727 20265 15730 20254 15729 C 20243 15729 20240 15726 20248 15723 z" stroke-linecap="round" />
</g>
		<g transform="matrix(0.03 0 0 -0.03 163.25 -248.2)"  >
<path style="stroke: none; stroke-width: 1; stroke-dasharray: none; stroke-linecap: butt; stroke-dashoffset: 0; stroke-linejoin: miter; stroke-miterlimit: 4; fill: rgb(107,16,16); fill-rule: nonzero; opacity: 1;" vector-effect="non-scaling-stroke"  transform=" translate(-20215.86, -15715.19)" d="M 20208 15713 C 20215 15710 20224 15711 20227 15714 C 20231 15717 20225 15720 20214 15719 C 20203 15719 20200 15716 20208 15713 z" stroke-linecap="round" />
</g>
		<g transform="matrix(0.03 0 0 -0.03 162.03 -247.89)"  >
<path style="stroke: none; stroke-width: 1; stroke-dasharray: none; stroke-linecap: butt; stroke-dashoffset: 0; stroke-linejoin: miter; stroke-miterlimit: 4; fill: rgb(107,16,16); fill-rule: nonzero; opacity: 1;" vector-effect="non-scaling-stroke"  transform=" translate(-20175.86, -15705.19)" d="M 20168 15703 C 20175 15700 20184 15701 20187 15704 C 20191 15707 20185 15710 20174 15709 C 20163 15709 20160 15706 20168 15703 z" stroke-linecap="round" />
</g>
		<g transform="matrix(0.03 0 0 -0.03 160.8 -247.59)"  >
<path style="stroke: none; stroke-width: 1; stroke-dasharray: none; stroke-linecap: butt; stroke-dashoffset: 0; stroke-linejoin: miter; stroke-miterlimit: 4; fill: rgb(107,16,16); fill-rule: nonzero; opacity: 1;" vector-effect="non-scaling-stroke"  transform=" translate(-20135.86, -15695.19)" d="M 20128 15693 C 20135 15690 20144 15691 20147 15694 C 20151 15697 20145 15700 20134 15699 C 20123 15699 20120 15696 20128 15693 z" stroke-linecap="round" />
</g>
		<g transform="matrix(0.03 0 0 -0.03 159.57 -247.28)"  >
<path style="stroke: none; stroke-width: 1; stroke-dasharray: none; stroke-linecap: butt; stroke-dashoffset: 0; stroke-linejoin: miter; stroke-miterlimit: 4; fill: rgb(107,16,16); fill-rule: nonzero; opacity: 1;" vector-effect="non-scaling-stroke"  transform=" translate(-20095.86, -15685.19)" d="M 20088 15683 C 20095 15680 20104 15681 20107 15684 C 20111 15687 20105 15690 20094 15689 C 20083 15689 20080 15686 20088 15683 z" stroke-linecap="round" />
</g>
		<g transform="matrix(0.03 0 0 -0.03 -276.67 -66.59)"  >
<path style="stroke: none; stroke-width: 1; stroke-dasharray: none; stroke-linecap: butt; stroke-dashoffset: 0; stroke-linejoin: miter; stroke-miterlimit: 4; fill: rgb(107,16,16); fill-rule: nonzero; opacity: 1;" vector-effect="non-scaling-stroke"  transform=" translate(-5856, -9810.71)" d="M 6160 14979 C 6091 14878 5945 14668 5836 14511 C 5727 14354 5529 14070 5397 13880 C 5265 13690 5106 13463 5045 13375 C 4984 13287 4855 13103 4760 12965 C 4664 12828 4500 12591 4395 12440 C 4289 12289 4106 12026 3987 11855 C 3775 11550 3720 11472 3619 11328 C 3591 11288 3401 11014 3196 10720 C 2992 10426 2678 9976 2500 9720 C 2322 9464 2086 9125 1975 8965 C 1864 8806 1701 8571 1612 8443 L 1450 8211 L 1450 7670 L 1450 7130 L 1498 7129 C 1524 7129 1572 7127 1605 7124 C 1666 7120 2613 7081 2640 7082 C 2648 7082 2914 7071 3230 7056 C 3761 7033 3875 7028 4185 7015 C 4246 7012 4338 7008 4390 7005 C 4442 7002 4544 6998 4615 6995 C 4687 6992 4842 6985 4960 6980 C 5761 6945 5919 6939 5956 6943 L 5997 6947 L 5989 6901 C 5985 6876 5977 6716 5970 6545 C 5964 6375 5957 6210 5955 6180 C 5944 6025 5887 4590 5891 4585 C 5901 4576 6227 4560 7125 4525 C 7340 4517 7604 4506 7714 4500 C 7823 4495 7915 4491 7919 4492 C 7925 4494 8117 4485 8280 4475 C 8321 4473 8445 4468 8556 4464 C 8724 4458 8757 4459 8757 4471 C 8758 4484 8778 4912 8783 5020 L 8785 5066 L 8535 5062 C 8342 5059 8263 5062 8191 5074 C 8139 5082 8094 5087 8089 5085 C 8085 5082 8080 5084 8078 5089 C 8077 5094 8055 5101 8030 5104 C 8005 5106 7943 5120 7892 5134 C 7840 5149 7793 5157 7788 5153 C 7782 5150 7780 5152 7784 5158 C 7787 5164 7780 5171 7768 5175 C 7718 5189 7561 5254 7495 5288 C 7341 5367 7232 5436 7154 5504 C 7130 5525 7110 5540 7110 5537 C 7110 5529 7073 5565 7025 5619 L 6986 5662 L 7033 5631 C 7058 5613 7082 5595 7085 5589 C 7089 5584 7097 5583 7103 5586 C 7110 5590 7112 5590 7108 5585 C 7104 5581 7124 5561 7153 5540 C 7182 5519 7216 5493 7230 5482 C 7314 5416 7664 5238 7712 5236 C 7726 5235 7736 5232 7734 5229 C 7732 5225 7737 5219 7746 5216 C 7756 5212 7759 5214 7754 5223 C 7750 5229 7755 5228 7766 5219 C 7802 5188 8004 5136 8205 5105 C 8369 5079 8742 5078 8774 5104 C 8786 5113 8792 5206 8809 5615 C 8821 5890 8832 6156 8835 6205 C 8837 6255 8845 6410 8851 6550 C 8857 6690 8864 6808 8867 6813 C 8869 6817 8876 6818 8881 6814 C 8893 6807 10183 6749 10189 6756 C 10192 6759 10195 6775 10197 6793 C 10202 6867 10219 7207 10224 7360 C 10228 7451 10232 7552 10235 7585 C 10237 7618 10242 7717 10245 7805 C 10248 7893 10253 8008 10256 8062 L 10262 8158 L 10199 8164 C 10139 8169 9272 8207 9035 8214 L 8925 8218 L 8928 8286 C 8929 8324 8942 8621 8956 8945 C 8970 9270 8980 9551 8979 9570 C 8978 9589 8979 9614 8983 9625 C 8986 9636 8992 9741 8995 9859 C 8998 9976 9002 10075 9004 10079 C 9006 10082 9011 10180 9014 10295 C 9018 10411 9023 10539 9025 10580 C 9027 10621 9034 10770 9040 10910 C 9046 11050 9055 11255 9060 11365 C 9066 11475 9073 11630 9076 11710 C 9079 11790 9087 11994 9095 12164 C 9102 12335 9108 12476 9108 12479 C 9106 12485 9115 12660 9126 12843 C 9131 12937 9131 12941 9113 12931 C 9080 12912 9021 12853 9028 12845 C 9032 12842 9030 12840 9025 12842 C 9019 12843 9004 12837 8990 12827 C 8941 12791 8798 12700 8791 12700 C 8787 12700 8762 12689 8734 12676 C 8670 12645 8505 12590 8460 12584 C 8441 12581 8396 12575 8360 12570 C 8207 12548 7976 12563 7830 12604 C 7800 12613 7767 12622 7758 12624 C 7749 12627 7732 12634 7720 12640 C 7709 12646 7694 12648 7688 12644 C 7681 12639 7680 12641 7685 12650 C 7691 12660 7688 12662 7672 12658 C 7660 12654 7652 12656 7655 12660 C 7658 12665 7645 12673 7627 12679 C 7609 12685 7568 12704 7537 12720 C 7506 12736 7480 12746 7480 12742 C 7480 12738 7476 12740 7472 12746 C 7468 12752 7452 12763 7435 12772 C 7419 12780 7344 12820 7270 12862 C 7065 12976 6867 13072 6848 13066 C 6838 13064 6832 13065 6835 13070 C 6849 13092 6552 13169 6495 13157 C 6481 13155 6467 13157 6464 13161 C 6439 13202 6051 13115 6020 13062 C 6015 13053 6010 13049 6010 13054 C 6010 13059 6001 13055 5990 13045 C 5965 13022 5951 13033 5973 13058 C 5997 13084 6126 13147 6195 13166 C 6231 13176 6312 13184 6395 13187 C 6518 13191 6549 13188 6650 13166 C 6790 13136 6887 13102 7003 13044 C 7052 13020 7097 13003 7103 13007 C 7108 13010 7110 13008 7106 13002 C 7103 12996 7110 12988 7122 12985 C 7135 12981 7153 12971 7162 12963 C 7171 12955 7184 12951 7191 12956 C 7198 12960 7201 12959 7197 12953 C 7187 12936 7233 12920 7256 12933 C 7272 12942 7273 12941 7263 12929 C 7253 12917 7267 12905 7348 12860 C 7462 12796 7520 12768 7520 12778 C 7520 12782 7524 12780 7528 12773 C 7540 12754 7680 12688 7696 12694 C 7706 12698 7708 12696 7704 12688 C 7699 12681 7704 12679 7718 12682 C 7730 12686 7738 12684 7734 12679 C 7730 12672 7744 12666 7753 12672 C 7754 12673 7766 12668 7779 12661 C 7792 12654 7832 12640 7869 12630 C 8089 12570 8364 12578 8585 12652 C 8692 12687 8880 12777 8880 12792 C 8880 12798 8883 12801 8886 12797 C 8898 12786 9112 12949 9125 12979 C 9130 12993 9161 13580 9160 13655 C 9160 13677 9173 13992 9190 14354 C 9206 14717 9216 15018 9212 15022 C 9204 15030 8975 15043 8640 15055 C 8555 15058 8449 15063 8405 15065 C 8361 15068 8165 15076 7970 15085 C 7775 15093 7572 15102 7520 15105 C 7439 15109 7234 15119 6660 15144 C 6597 15147 6487 15152 6415 15155 L 6285 15161 L 6160 14979 z M 8586 14952 C 8581 14943 8437 14872 8375 14847 C 8231 14790 7987 14720 7933 14720 C 7922 14720 7910 14717 7906 14713 C 7902 14709 7884 14705 7867 14705 C 7849 14704 7775 14698 7701 14691 C 7505 14671 7132 14693 7143 14724 C 7146 14730 7154 14733 7161 14731 C 7254 14706 7646 14708 7815 14735 C 7865 14743 7923 14752 7945 14755 C 8060 14772 8311 14848 8425 14901 C 8527 14948 8598 14970 8586 14952 z M 6940 13100 C 6948 13095 6951 13090 6945 13090 C 6940 13090 6928 13095 6920 13100 C 6912 13105 6910 13110 6915 13110 C 6921 13110 6932 13105 6940 13100 z M 4945 11263 C 5003 11248 5164 11161 5218 11117 C 5271 11073 5345 11004 5373 10973 C 5389 10955 5406 10943 5411 10946 C 5416 10949 5419 10947 5418 10942 C 5416 10936 5443 10901 5476 10863 C 5510 10826 5559 10770 5585 10740 C 5611 10710 5643 10673 5655 10659 C 5668 10644 5683 10623 5690 10611 C 5696 10598 5706 10592 5713 10596 C 5720 10600 5722 10600 5718 10595 C 5710 10587 5739 10530 5752 10530 C 5756 10530 5757 10524 5754 10516 C 5750 10505 5743 10508 5725 10526 C 5711 10540 5695 10560 5689 10571 C 5683 10582 5676 10589 5673 10586 C 5670 10583 5660 10593 5651 10609 C 5633 10642 5539 10747 5401 10891 C 5321 10974 5304 10987 5291 10977 C 5277 10967 5277 10967 5288 10981 C 5298 10995 5295 11001 5268 11023 C 5250 11037 5217 11064 5195 11084 C 5173 11103 5144 11125 5130 11132 C 5116 11139 5101 11150 5095 11156 C 5090 11162 5072 11174 5055 11183 C 4950 11238 4854 11261 4745 11258 C 4654 11255 4646 11267 4731 11280 C 4796 11289 4864 11284 4945 11263 z M 6131 10194 C 6114 9809 6098 9446 6095 9385 C 6092 9325 6081 9068 6069 8815 C 6058 8563 6048 8355 6047 8353 C 6039 8345 5703 8354 5600 8365 C 5575 8368 5472 8373 5370 8376 C 5268 8379 5113 8386 5025 8390 C 4937 8395 4793 8401 4705 8404 C 4449 8414 4330 8422 4330 8432 C 4330 8440 4400 8540 4443 8593 C 4455 8608 4465 8623 4465 8627 C 4465 8631 4480 8650 4497 8670 C 4515 8689 4530 8707 4530 8710 C 4530 8713 4566 8763 4609 8820 C 4662 8891 4685 8929 4679 8936 C 4672 8944 4675 8947 4686 8946 C 4696 8946 4725 8978 4761 9030 C 4793 9077 4826 9122 4833 9130 C 4840 9138 4868 9177 4895 9215 C 4922 9254 4971 9320 5003 9363 C 5035 9406 5059 9447 5056 9455 C 5053 9464 5056 9467 5065 9464 C 5078 9459 5107 9497 5102 9513 C 5101 9518 5104 9519 5108 9516 C 5113 9513 5134 9536 5155 9568 C 5176 9599 5206 9641 5222 9662 C 5240 9685 5248 9705 5244 9717 C 5240 9730 5241 9731 5247 9722 C 5261 9703 5382 9871 5374 9897 C 5370 9910 5371 9911 5378 9902 C 5385 9892 5398 9904 5430 9952 C 5454 9987 5477 10018 5483 10021 C 5488 10025 5489 10033 5486 10039 C 5482 10045 5483 10049 5488 10048 C 5503 10043 5572 10138 5564 10153 C 5560 10159 5560 10162 5565 10158 C 5572 10151 5595 10177 5672 10278 C 5701 10316 5706 10330 5697 10339 C 5688 10349 5688 10350 5700 10345 C 5718 10339 5763 10393 5765 10422 C 5766 10432 5770 10443 5775 10447 C 5779 10452 5780 10446 5777 10435 C 5772 10419 5774 10420 5788 10440 C 5797 10453 5819 10483 5836 10506 C 5854 10529 5873 10557 5879 10568 C 5885 10579 5896 10594 5902 10602 C 5920 10620 5989 10714 6031 10775 C 6066 10826 6086 10854 6130 10909 C 6155 10940 6155 10940 6158 10917 C 6160 10903 6147 10578 6131 10194 z M 5970 10716 C 5970 10714 5962 10706 5953 10699 C 5937 10686 5936 10687 5949 10703 C 5962 10719 5970 10724 5970 10716 z M 6690 10370 C 6682 10365 6671 10360 6665 10360 C 6660 10360 6662 10365 6670 10370 C 6678 10375 6690 10380 6695 10380 C 6701 10380 6698 10375 6690 10370 z M 7295 9590 C 7333 9542 7503 9380 7521 9375 C 7532 9371 7540 9365 7540 9360 C 7540 9355 7550 9348 7562 9344 C 7574 9341 7604 9323 7629 9305 C 7709 9250 7889 9174 7990 9155 C 8127 9128 8250 9120 8355 9130 C 8470 9140 8660 9182 8695 9203 C 8706 9210 8734 9222 8757 9230 C 8780 9237 8797 9247 8794 9251 C 8791 9256 8796 9257 8804 9254 C 8814 9250 8820 9253 8820 9261 C 8820 9268 8823 9271 8826 9267 C 8834 9259 8912 9299 8906 9308 C 8904 9312 8912 9315 8925 9315 C 8938 9315 8946 9312 8944 9308 C 8942 9305 8946 9299 8952 9296 C 8961 9293 8960 9291 8950 9293 C 8929 9295 8848 9245 8857 9235 C 8862 9231 8860 9230 8853 9233 C 8847 9237 8806 9223 8762 9201 C 8686 9165 8654 9152 8620 9145 C 8612 9143 8562 9132 8510 9120 C 8398 9094 8157 9088 8050 9109 C 7949 9128 7817 9168 7750 9201 C 7717 9217 7687 9230 7684 9230 C 7681 9230 7647 9250 7609 9275 C 7571 9299 7540 9316 7540 9312 C 7540 9308 7536 9310 7532 9316 C 7513 9343 7371 9458 7364 9452 C 7359 9448 7358 9449 7363 9454 C 7372 9465 7321 9522 7309 9514 C 7304 9511 7303 9515 7305 9522 C 7308 9530 7299 9547 7285 9560 C 7271 9573 7260 9589 7260 9596 C 7260 9602 7253 9613 7245 9620 C 7237 9627 7230 9642 7230 9653 C 7230 9671 7233 9670 7253 9644 C 7265 9628 7284 9603 7295 9590 z M 3691 8202 C 3802 8181 3981 8125 4052 8089 C 4074 8078 4102 8067 4113 8064 C 4124 8062 4136 8057 4139 8053 C 4142 8048 4172 8032 4205 8016 C 4279 7980 4458 7873 4564 7803 C 4607 7774 4644 7750 4646 7750 C 4648 7750 4658 7742 4668 7733 C 4679 7723 4700 7707 4716 7698 C 4760 7672 4783 7656 4798 7642 C 4813 7628 4988 7503 5028 7478 C 5043 7469 5060 7457 5067 7451 C 5073 7446 5102 7426 5132 7408 C 5161 7390 5187 7372 5188 7368 C 5190 7364 5196 7360 5202 7360 C 5207 7360 5223 7351 5237 7340 C 5251 7329 5267 7323 5273 7327 C 5278 7330 5280 7329 5277 7324 C 5272 7315 5381 7247 5396 7250 C 5400 7251 5406 7247 5409 7242 C 5421 7223 5712 7089 5812 7056 C 5923 7019 6040 6992 6130 6983 C 6226 6972 6361 6968 6378 6975 C 6388 6979 6416 6983 6442 6985 C 6514 6991 6610 7012 6610 7022 C 6610 7027 6614 7028 6620 7025 C 6631 7018 6697 7037 6780 7070 C 6884 7111 6909 7123 6903 7133 C 6900 7139 6902 7140 6908 7136 C 6923 7127 7003 7164 6993 7175 C 6988 7179 6991 7180 6997 7176 C 7004 7172 7037 7185 7070 7204 C 7104 7224 7134 7240 7137 7240 C 7140 7240 7168 7255 7199 7274 C 7269 7317 7346 7360 7430 7405 C 7466 7424 7504 7446 7515 7452 C 7565 7483 7585 7495 7590 7495 C 7614 7500 7708 7556 7703 7563 C 7700 7569 7702 7570 7708 7566 C 7714 7562 7745 7572 7777 7587 C 7809 7602 7837 7615 7840 7615 C 7869 7621 7928 7644 7925 7649 C 7923 7653 7929 7656 7938 7657 C 7947 7658 7983 7666 8018 7676 C 8064 7689 8079 7698 8075 7709 C 8071 7720 8072 7720 8084 7711 C 8096 7701 8114 7703 8172 7718 C 8212 7729 8252 7738 8260 7739 C 8268 7739 8345 7742 8431 7746 C 8612 7754 8766 7741 8911 7704 C 8964 7691 9016 7679 9026 7677 C 9037 7675 9052 7670 9060 7667 C 9068 7663 9098 7653 9125 7644 C 9153 7635 9217 7608 9268 7584 C 9320 7560 9366 7540 9371 7540 C 9376 7540 9380 7536 9380 7531 C 9380 7526 9389 7519 9400 7515 C 9411 7512 9441 7494 9468 7477 C 9494 7459 9523 7441 9532 7435 C 9603 7389 9730 7287 9779 7236 C 9798 7217 9818 7204 9823 7207 C 9829 7210 9830 7208 9827 7203 C 9819 7190 9844 7167 9855 7178 C 9860 7182 9860 7180 9857 7174 C 9853 7168 9863 7150 9877 7134 C 9892 7118 9915 7089 9929 7070 C 9942 7051 9959 7031 9966 7027 C 9974 7022 9978 7015 9976 7011 C 9973 7007 9984 6989 10000 6971 C 10016 6954 10030 6937 10030 6935 C 10030 6932 10030 6925 10030 6919 C 10030 6914 10034 6911 10038 6914 C 10043 6917 10047 6914 10047 6907 C 10047 6884 10102 6800 10112 6806 C 10117 6810 10116 6802 10110 6789 C 10098 6767 10097 6767 10073 6813 C 10060 6839 10045 6860 10039 6860 C 10033 6860 10032 6865 10035 6870 C 10038 6876 10036 6880 10029 6880 C 10022 6880 10019 6883 10023 6886 C 10033 6896 9924 7049 9912 7042 C 9909 7040 9901 7051 9895 7067 C 9883 7094 9750 7239 9750 7224 C 9750 7220 9741 7229 9729 7243 C 9718 7258 9704 7269 9697 7267 C 9691 7266 9686 7271 9685 7278 C 9685 7284 9681 7291 9675 7293 C 9670 7294 9656 7304 9644 7315 C 9577 7377 9413 7483 9398 7474 C 9391 7470 9388 7471 9393 7475 C 9397 7480 9381 7494 9358 7507 C 9317 7529 9294 7540 9205 7580 C 9128 7615 8944 7670 8835 7692 C 8747 7710 8688 7714 8540 7714 C 8438 7715 8344 7713 8330 7711 C 8244 7700 8084 7666 8079 7658 C 8076 7653 8070 7649 8066 7650 C 8051 7654 7991 7636 7920 7608 C 7791 7557 7770 7547 7770 7538 C 7770 7534 7766 7531 7762 7533 C 7750 7536 7650 7488 7650 7478 C 7650 7473 7646 7471 7641 7474 C 7637 7477 7613 7467 7588 7451 C 7563 7435 7533 7419 7521 7415 C 7502 7409 7501 7406 7512 7392 C 7524 7377 7523 7377 7508 7388 C 7494 7399 7486 7398 7453 7377 C 7432 7364 7376 7332 7327 7306 C 7276 7278 7243 7254 7246 7248 C 7250 7242 7248 7240 7242 7243 C 7237 7247 7203 7234 7168 7215 C 7134 7196 7066 7162 7018 7138 C 6970 7115 6934 7092 6937 7086 C 6941 7081 6938 7080 6931 7085 C 6924 7089 6908 7088 6897 7082 C 6885 7076 6846 7059 6810 7045 C 6774 7031 6733 7013 6719 7005 C 6705 6997 6690 6993 6688 6996 C 6685 6998 6649 6992 6609 6981 C 6385 6922 6131 6929 5860 7003 C 5798 7020 5607 7096 5531 7134 C 5505 7148 5480 7156 5476 7153 C 5473 7149 5470 7152 5470 7158 C 5470 7165 5466 7170 5460 7170 C 5455 7170 5429 7183 5401 7199 C 5374 7215 5349 7226 5346 7223 C 5343 7219 5340 7222 5340 7228 C 5340 7235 5333 7240 5325 7240 C 5317 7240 5310 7243 5310 7248 C 5310 7252 5284 7271 5253 7289 C 5189 7327 5028 7431 5020 7440 C 5017 7443 4986 7465 4950 7489 C 4914 7513 4873 7542 4858 7554 C 4797 7602 4747 7635 4739 7633 C 4734 7631 4730 7634 4730 7639 C 4730 7647 4525 7787 4370 7886 C 4317 7919 4152 8010 4137 8013 C 4131 8014 4123 8018 4120 8021 C 4112 8031 3947 8101 3928 8103 C 3918 8104 3910 8107 3910 8111 C 3910 8121 3735 8167 3630 8185 C 3534 8202 3353 8207 3270 8197 C 3124 8178 3040 8160 3040 8148 C 3040 8143 3036 8141 3031 8144 C 3019 8152 2959 8130 2965 8120 C 2968 8116 2962 8114 2953 8116 C 2931 8121 2774 8036 2777 8021 C 2779 8015 2774 8013 2766 8016 C 2759 8019 2724 7992 2685 7955 C 2648 7919 2613 7891 2606 7893 C 2593 7898 2669 7971 2755 8037 C 2788 8062 2814 8087 2812 8092 C 2811 8098 2815 8100 2822 8097 C 2829 8095 2844 8097 2854 8103 C 2872 8112 2872 8113 2849 8126 C 2836 8133 2829 8139 2833 8140 C 2838 8140 2851 8135 2862 8129 C 2879 8120 2890 8121 2914 8133 C 2956 8154 3108 8203 3145 8207 C 3162 8209 3204 8215 3240 8220 C 3337 8233 3570 8224 3691 8202 z M 9954 7074 C 9957 7066 9956 7062 9950 7065 C 9944 7068 9940 7075 9940 7081 C 9940 7095 9947 7092 9954 7074 z" stroke-linecap="round" />
</g>
		<g transform="matrix(0.03 0 0 -0.03 140.92 -208.09)"  >
<path style="stroke: none; stroke-width: 1; stroke-dasharray: none; stroke-linecap: butt; stroke-dashoffset: 0; stroke-linejoin: miter; stroke-miterlimit: 4; fill: rgb(107,16,16); fill-rule: nonzero; opacity: 1;" vector-effect="non-scaling-stroke"  transform=" translate(-19487.15, -14407.7)" d="M 19287 14567 C 19273 14557 19271 14546 19279 14495 C 19288 14441 19298 14318 19300 14265 C 19300 14246 19308 14245 19494 14242 L 19687 14239 L 19694 14301 C 19703 14390 19702 14448 19690 14455 C 19684 14458 19675 14481 19669 14506 C 19663 14530 19657 14550 19656 14550 C 19655 14550 19632 14530 19606 14505 C 19580 14481 19535 14449 19507 14435 C 19384 14374 19266 14432 19298 14538 C 19311 14580 19310 14584 19287 14567 z" stroke-linecap="round" />
</g>
		<g transform="matrix(0.03 0 0 -0.03 148.96 -205.66)"  >
<path style="stroke: none; stroke-width: 1; stroke-dasharray: none; stroke-linecap: butt; stroke-dashoffset: 0; stroke-linejoin: miter; stroke-miterlimit: 4; fill: rgb(107,16,16); fill-rule: nonzero; opacity: 1;" vector-effect="non-scaling-stroke"  transform=" translate(-19749.92, -14328.41)" d="M 19741 14323 C 19741 14265 19744 14242 19750 14255 C 19762 14283 19762 14398 19750 14405 C 19744 14409 19740 14379 19741 14323 z" stroke-linecap="round" />
</g>
		<g transform="matrix(0.03 0 0 -0.03 122.77 -200.22)"  >
<path style="stroke: none; stroke-width: 1; stroke-dasharray: none; stroke-linecap: butt; stroke-dashoffset: 0; stroke-linejoin: miter; stroke-miterlimit: 4; fill: rgb(107,16,16); fill-rule: nonzero; opacity: 1;" vector-effect="non-scaling-stroke"  transform=" translate(-18895, -14150.76)" d="M 18837 14209 C 18764 14192 18700 14145 18700 14109 C 18700 14083 18728 14078 18823 14089 C 18869 14094 18949 14096 18999 14093 L 19090 14087 L 19090 14118 C 19090 14159 19038 14194 18956 14209 C 18889 14221 18889 14221 18837 14209 z" stroke-linecap="round" />
</g>
		<g transform="matrix(0.03 0 0 -0.03 123.03 -195.1)"  >
<path style="stroke: none; stroke-width: 1; stroke-dasharray: none; stroke-linecap: butt; stroke-dashoffset: 0; stroke-linejoin: miter; stroke-miterlimit: 4; fill: rgb(107,16,16); fill-rule: nonzero; opacity: 1;" vector-effect="non-scaling-stroke"  transform=" translate(-18903.29, -13983.72)" d="M 18835 14037 C 18771 14016 18734 13993 18705 13958 C 18671 13918 18687 13910 18747 13936 C 18804 13960 18880 13980 18921 13980 C 18941 13980 18992 13971 19035 13960 C 19078 13949 19115 13942 19117 13944 C 19129 13955 19089 13994 19043 14016 C 18981 14047 18892 14055 18835 14037 z" stroke-linecap="round" />
</g>
		<g transform="matrix(0.03 0 0 -0.03 88.91 -193.73)"  >
<path style="stroke: none; stroke-width: 1; stroke-dasharray: none; stroke-linecap: butt; stroke-dashoffset: 0; stroke-linejoin: miter; stroke-miterlimit: 4; fill: rgb(107,16,16); fill-rule: nonzero; opacity: 1;" vector-effect="non-scaling-stroke"  transform=" translate(-17790.57, -13939.15)" d="M 17631 14004 C 17578 13990 17520 13956 17520 13940 C 17520 13921 17558 13912 17665 13906 C 17726 13902 17826 13890 17888 13879 C 18064 13850 18086 13854 18041 13912 C 17976 13995 17769 14041 17631 14004 z" stroke-linecap="round" />
</g>
		<g transform="matrix(0.03 0 0 -0.03 108.11 -180.77)"  >
<path style="stroke: none; stroke-width: 1; stroke-dasharray: none; stroke-linecap: butt; stroke-dashoffset: 0; stroke-linejoin: miter; stroke-miterlimit: 4; fill: rgb(107,16,16); fill-rule: nonzero; opacity: 1;" vector-effect="non-scaling-stroke"  transform=" translate(-18417.32, -13517.97)" d="M 18335 13970 C 18346 13868 18424 13511 18506 13180 C 18524 13107 18523 13073 18504 13066 C 18495 13063 18439 13060 18380 13060 C 18266 13060 18226 13047 18308 13037 C 18442 13019 18491 13018 18518 13029 C 18547 13041 18570 13076 18570 13108 C 18570 13174 18373 13949 18343 14000 C 18330 14023 18329 14021 18335 13970 z" stroke-linecap="round" />
</g>
		<g transform="matrix(0.03 0 0 -0.03 124.75 -187.49)"  >
<path style="stroke: none; stroke-width: 1; stroke-dasharray: none; stroke-linecap: butt; stroke-dashoffset: 0; stroke-linejoin: miter; stroke-miterlimit: 4; fill: rgb(107,16,16); fill-rule: nonzero; opacity: 1;" vector-effect="non-scaling-stroke"  transform=" translate(-18960, -13735.58)" d="M 18884 13806 C 18858 13780 18850 13764 18850 13735 C 18850 13672 18922 13618 18986 13634 C 19027 13645 19070 13693 19070 13729 C 19070 13797 19026 13840 18954 13840 C 18926 13840 18910 13832 18884 13806 z" stroke-linecap="round" />
</g>
		<g transform="matrix(0.03 0 0 -0.03 89.93 -187.31)"  >
<path style="stroke: none; stroke-width: 1; stroke-dasharray: none; stroke-linecap: butt; stroke-dashoffset: 0; stroke-linejoin: miter; stroke-miterlimit: 4; fill: rgb(107,16,16); fill-rule: nonzero; opacity: 1;" vector-effect="non-scaling-stroke"  transform=" translate(-17824.36, -13729.77)" d="M 17715 13770 C 17664 13750 17610 13708 17610 13688 C 17610 13677 17620 13678 17720 13705 C 17799 13726 17875 13721 17965 13689 C 18001 13677 18033 13669 18036 13673 C 18050 13686 18008 13731 17958 13756 C 17887 13792 17784 13798 17715 13770 z" stroke-linecap="round" />
</g>
		<g transform="matrix(0.03 0 0 -0.03 408.51 -163.31)"  >
<path style="stroke: none; stroke-width: 1; stroke-dasharray: none; stroke-linecap: butt; stroke-dashoffset: 0; stroke-linejoin: miter; stroke-miterlimit: 4; fill: rgb(107,16,16); fill-rule: nonzero; opacity: 1;" vector-effect="non-scaling-stroke"  transform=" translate(-28212.64, -12948.65)" d="M 28285 13453 C 28206 13421 28078 13306 28098 13286 C 28102 13282 28099 13280 28092 13282 C 28079 13285 28052 13242 28013 13155 C 27985 13092 27988 12905 28019 12825 C 28032 12792 28048 12761 28054 12755 C 28081 12733 28079 12694 28044 12567 C 28024 12497 28010 12435 28012 12430 C 28014 12424 28035 12482 28059 12559 L 28103 12698 L 28147 12709 C 28171 12716 28210 12732 28232 12746 C 28281 12777 28361 12860 28354 12872 C 28351 12876 28353 12880 28358 12880 C 28362 12880 28376 12899 28388 12923 C 28451 13050 28445 13286 28374 13433 C 28354 13474 28343 13476 28285 13453 z" stroke-linecap="round" />
</g>
		<g transform="matrix(0.03 0 0 -0.03 97.83 -156.15)"  >
<path style="stroke: none; stroke-width: 1; stroke-dasharray: none; stroke-linecap: butt; stroke-dashoffset: 0; stroke-linejoin: miter; stroke-miterlimit: 4; fill: rgb(107,16,16); fill-rule: nonzero; opacity: 1;" vector-effect="non-scaling-stroke"  transform=" translate(-18081.68, -12714.19)" d="M 17903 12839 C 17885 12834 17870 12826 17870 12821 C 17870 12817 17905 12807 17947 12800 C 18057 12781 18146 12734 18215 12658 C 18245 12624 18270 12593 18270 12588 C 18270 12584 18276 12580 18284 12580 C 18310 12580 18278 12677 18235 12728 C 18156 12822 18012 12870 17903 12839 z" stroke-linecap="round" />
</g>
		<g transform="matrix(0.03 0 0 -0.03 -397.39 -90.83)"  >
<path style="stroke: none; stroke-width: 1; stroke-dasharray: none; stroke-linecap: butt; stroke-dashoffset: 0; stroke-linejoin: miter; stroke-miterlimit: 4; fill: rgb(107,16,16); fill-rule: nonzero; opacity: 1;" vector-effect="non-scaling-stroke"  transform=" translate(-1932.1, -10584.38)" d="M 2025 10886 C 1992 10879 1958 10870 1950 10867 C 1942 10864 1922 10859 1907 10856 C 1890 10852 1882 10845 1886 10838 C 1890 10831 1889 10830 1882 10834 C 1850 10854 1623 10677 1635 10642 C 1638 10635 1636 10632 1631 10635 C 1625 10638 1607 10619 1589 10594 C 1571 10568 1562 10550 1568 10554 C 1576 10559 1578 10556 1574 10546 C 1571 10537 1565 10532 1561 10535 C 1557 10537 1547 10524 1538 10505 C 1529 10485 1527 10473 1534 10477 C 1540 10481 1537 10474 1528 10463 C 1518 10452 1510 10438 1510 10432 C 1510 10426 1493 10406 1473 10388 C 1452 10370 1413 10333 1385 10307 C 1337 10261 1339 10261 1421 10323 L 1508 10388 L 1561 10374 C 1739 10327 1928 10352 2110 10447 C 2217 10502 2215 10501 2199 10512 C 2188 10519 2190 10520 2203 10516 C 2227 10508 2327 10586 2433 10694 L 2511 10774 L 2458 10807 C 2430 10825 2399 10840 2390 10840 C 2381 10840 2370 10844 2365 10849 C 2359 10855 2344 10861 2330 10864 C 2316 10867 2290 10873 2272 10879 C 2215 10896 2089 10900 2025 10886 z M 1580 10476 C 1580 10474 1572 10466 1563 10459 C 1547 10446 1546 10447 1559 10463 C 1572 10479 1580 10484 1580 10476 z" stroke-linecap="round" />
</g>
		<g transform="matrix(0.03 0 0 -0.03 -51.23 -35.74)"  >
<path style="stroke: none; stroke-width: 1; stroke-dasharray: none; stroke-linecap: butt; stroke-dashoffset: 0; stroke-linejoin: miter; stroke-miterlimit: 4; fill: rgb(107,16,16); fill-rule: nonzero; opacity: 1;" vector-effect="non-scaling-stroke"  transform=" translate(-13221.89, -8787.18)" d="M 13215 8795 C 13184 8770 13184 8771 13235 8755 C 13246 8752 13250 8759 13250 8785 C 13250 8804 13248 8820 13247 8820 C 13245 8820 13230 8809 13215 8795 z" stroke-linecap="round" />
</g>
		<g transform="matrix(0.03 0 0 -0.03 -53.48 -29.85)"  >
<path style="stroke: none; stroke-width: 1; stroke-dasharray: none; stroke-linecap: butt; stroke-dashoffset: 0; stroke-linejoin: miter; stroke-miterlimit: 4; fill: rgb(107,16,16); fill-rule: nonzero; opacity: 1;" vector-effect="non-scaling-stroke"  transform=" translate(-13148.18, -8595.57)" d="M 13109 8682 C 13068 8640 13045 8609 13047 8598 C 13050 8585 13187 8476 13237 8447 C 13245 8442 13248 8477 13249 8578 C 13251 8726 13249 8731 13199 8743 C 13178 8749 13164 8740 13109 8682 z" stroke-linecap="round" />
</g>
		<g transform="matrix(0.03 0 0 -0.03 -119.22 75.45)"  >
<path style="stroke: none; stroke-width: 1; stroke-dasharray: none; stroke-linecap: butt; stroke-dashoffset: 0; stroke-linejoin: miter; stroke-miterlimit: 4; fill: rgb(107,16,16); fill-rule: nonzero; opacity: 1;" vector-effect="non-scaling-stroke"  transform=" translate(-11000.62, -5165)" d="M 9757 6248 C 9962 5983 10075 5846 10257 5641 C 10346 5541 10350 5535 10384 5431 C 10437 5267 10467 5108 10442 5124 C 10433 5130 10409 5100 10350 5010 C 10255 4867 10211 4647 10241 4470 C 10246 4440 10251 4408 10251 4400 C 10253 4364 10292 4210 10298 4214 C 10302 4216 10305 4206 10306 4190 C 10307 4159 10347 4070 10360 4070 C 10365 4070 10375 4077 10383 4085 C 10391 4093 10400 4097 10402 4095 C 10409 4088 10511 4186 10505 4193 C 10502 4197 10503 4198 10507 4195 C 10515 4189 10560 4230 10560 4243 C 10560 4248 10566 4258 10574 4264 C 10600 4284 10658 4405 10680 4480 C 10705 4572 10708 4717 10685 4805 C 10657 4914 10597 5022 10518 5106 C 10484 5142 10476 5159 10455 5251 C 10434 5342 10412 5415 10384 5484 C 10380 5495 10477 5403 10601 5279 C 10724 5155 10871 5011 10926 4959 L 11028 4865 L 11033 4804 C 11045 4687 11121 4510 11211 4393 C 11267 4321 11383 4216 11394 4227 C 11397 4231 11400 4228 11400 4223 C 11400 4205 11520 4143 11621 4108 C 11712 4076 11720 4075 11880 4075 C 12027 4075 12053 4078 12120 4099 C 12200 4124 12250 4149 12250 4163 C 12250 4176 12172 4288 12095 4385 C 11916 4609 11696 4774 11490 4838 C 11376 4873 11308 4883 11177 4883 L 11049 4882 L 10942 4979 C 10635 5255 10168 5755 9841 6158 C 9795 6214 9755 6260 9752 6260 C 9750 6260 9752 6254 9757 6248 z M 11586 4454 C 11604 4440 11604 4440 11580 4451 C 11549 4465 11544 4470 11556 4470 C 11562 4470 11575 4463 11586 4454 z" stroke-linecap="round" />
</g>
		<g transform="matrix(0.03 0 0 -0.03 231.4 58.13)"  >
<path style="stroke: none; stroke-width: 1; stroke-dasharray: none; stroke-linecap: butt; stroke-dashoffset: 0; stroke-linejoin: miter; stroke-miterlimit: 4; fill: rgb(107,16,16); fill-rule: nonzero; opacity: 1;" vector-effect="non-scaling-stroke"  transform=" translate(-22436.57, -5727.62)" d="M 22629 6170 C 22554 6157 22450 6118 22457 6107 C 22460 6102 22458 6100 22452 6104 C 22440 6111 22399 6097 22379 6078 C 22371 6071 22344 6049 22319 6030 C 22242 5971 22162 5871 22175 5850 C 22179 5844 22176 5841 22169 5842 C 22155 5845 22109 5742 22091 5665 C 22085 5638 22078 5583 22076 5543 C 22073 5482 22067 5462 22037 5413 C 22004 5359 21967 5280 21974 5280 C 21976 5280 21994 5308 22014 5343 C 22079 5454 22092 5463 22167 5461 C 22240 5458 22494 5561 22473 5585 C 22468 5589 22470 5590 22476 5587 C 22501 5573 22632 5693 22719 5810 C 22786 5900 22854 6026 22844 6042 C 22840 6048 22841 6050 22847 6047 C 22860 6039 22894 6115 22885 6131 C 22880 6139 22881 6141 22888 6136 C 22895 6132 22900 6135 22900 6143 C 22900 6151 22886 6160 22868 6164 C 22811 6176 22677 6179 22629 6170 z M 22370 5795 C 22363 5787 22353 5780 22347 5780 C 22341 5780 22345 5787 22356 5795 C 22381 5814 22386 5814 22370 5795 z" stroke-linecap="round" />
</g>
		<g transform="matrix(0.03 0 0 -0.03 124.04 74.94)"  >
<path style="stroke: none; stroke-width: 1; stroke-dasharray: none; stroke-linecap: butt; stroke-dashoffset: 0; stroke-linejoin: miter; stroke-miterlimit: 4; fill: rgb(107,16,16); fill-rule: nonzero; opacity: 1;" vector-effect="non-scaling-stroke"  transform=" translate(-18934.28, -5179.21)" d="M 19085 5533 C 18876 5516 18666 5422 18511 5276 C 18448 5217 18360 5104 18326 5039 C 18301 4992 18287 4978 18231 4947 C 18149 4903 18022 4821 18034 4820 C 18038 4820 18068 4835 18099 4854 C 18176 4900 18276 4950 18293 4950 C 18301 4950 18342 4934 18385 4914 C 18612 4809 18914 4792 19167 4870 C 19269 4901 19399 4958 19505 5017 C 19598 5069 19823 5221 19835 5240 C 19841 5250 19769 5316 19695 5367 C 19608 5426 19522 5467 19428 5494 C 19349 5517 19188 5542 19145 5538 C 19134 5537 19107 5535 19085 5533 z" stroke-linecap="round" />
</g>
		<g transform="matrix(0.03 0 0 -0.03 311.04 151.08)"  >
<path style="stroke: none; stroke-width: 1; stroke-dasharray: none; stroke-linecap: butt; stroke-dashoffset: 0; stroke-linejoin: miter; stroke-miterlimit: 4; fill: rgb(107,16,16); fill-rule: nonzero; opacity: 1;" vector-effect="non-scaling-stroke"  transform=" translate(-25033.18, -2695.82)" d="M 25065 2897 C 24997 2871 24896 2809 24868 2777 C 24858 2765 24831 2729 24808 2697 C 24785 2666 24757 2638 24746 2636 C 24679 2623 24490 2576 24493 2573 C 24496 2571 24558 2580 24631 2594 C 24776 2620 24800 2622 24797 2607 C 24793 2589 24901 2508 24921 2513 C 24932 2516 24938 2514 24934 2509 C 24931 2504 24932 2500 24937 2499 C 24941 2499 24952 2497 24960 2494 C 25049 2471 25130 2468 25180 2487 C 25188 2490 25203 2495 25214 2497 C 25311 2515 25553 2688 25533 2724 C 25530 2730 25531 2732 25535 2727 C 25540 2723 25551 2732 25561 2747 C 25579 2773 25578 2774 25554 2797 C 25540 2810 25524 2817 25518 2814 C 25512 2810 25510 2811 25513 2817 C 25517 2823 25503 2836 25482 2846 C 25462 2856 25443 2868 25440 2872 C 25423 2894 25336 2913 25235 2916 C 25139 2919 25117 2917 25065 2897 z" stroke-linecap="round" />
</g>
</g>
</g>
</svg>